<?xml version="1.0"?>
<svg xmlns="http://www.w3.org/2000/svg" id="Outline" viewBox="0 0 512 512" width="512" height="512"><path d="M424,178.443V80a8,8,0,0,0-8-8H256a8,8,0,0,0-8,8v98.443A159.981,159.981,0,0,0,176,312H128V256a8,8,0,0,0-8-8H88a8,8,0,0,0-8,8v24H56a8,8,0,0,0-8,8v24H24a8,8,0,0,0-8,8v48a8,8,0,0,0,8,8H48v24a8,8,0,0,0,8,8H80v24a8,8,0,0,0,8,8h32a8,8,0,0,0,8-8V376h61.315a160.458,160.458,0,0,0,48.46,62.312A8,8,0,0,0,242.69,440H429.31a8,8,0,0,0,4.915-1.688A159.944,159.944,0,0,0,424,178.443ZM32,360V328H48v32Zm32,32V296H80v96Zm48,32H96V264h16ZM264,88H408v81.143a159.215,159.215,0,0,0-16-7.021V112a8,8,0,0,0-8-8H288a8,8,0,0,0-8,8v50.122a159.215,159.215,0,0,0-16,7.021Zm112,69.062a160.571,160.571,0,0,0-80,0V120h80ZM128,328H304v32H128Zm224-32h16v96H352ZM336,424H320V264h16ZM206.983,376H304v48H245.479A144.522,144.522,0,0,1,206.983,376Zm219.539,48H352V408h24a8,8,0,0,0,8-8V376h24a8,8,0,0,0,8-8V320a8,8,0,0,0-8-8H384V288a8,8,0,0,0-8-8H352V256a8,8,0,0,0-8-8H312a8,8,0,0,0-8,8v56H192c0-79.4,64.6-144,144-144s144,64.6,144,144A143.142,143.142,0,0,1,426.522,424ZM384,328h16v32H384Z"/></svg>
